<?xml version="1.0" standalone="no"?>
<svg xmlns:xlink="http://www.w3.org/1999/xlink" id="wave" style="transform:rotate(0deg); transition: 0.3s" viewBox="0 0 1440 490" version="1.1" xmlns="http://www.w3.org/2000/svg"><defs><linearGradient id="sw-gradient-0" x1="0" x2="0" y1="1" y2="0"><stop stop-color="rgba(253.15, 253.15, 253.15, 1)" offset="0%"/><stop stop-color="rgba(255, 255, 255, 1)" offset="100%"/></linearGradient></defs><path style="transform:translate(0, 0px); opacity:1" fill="url(#sw-gradient-0)" d="M0,343L48,326.7C96,310,192,278,288,269.5C384,261,480,278,576,269.5C672,261,768,229,864,228.7C960,229,1056,261,1152,261.3C1248,261,1344,229,1440,187.8C1536,147,1632,98,1728,65.3C1824,33,1920,16,2016,40.8C2112,65,2208,131,2304,138.8C2400,147,2496,98,2592,122.5C2688,147,2784,245,2880,277.7C2976,310,3072,278,3168,236.8C3264,196,3360,147,3456,147C3552,147,3648,196,3744,245C3840,294,3936,343,4032,359.3C4128,376,4224,359,4320,326.7C4416,294,4512,245,4608,245C4704,245,4800,294,4896,302.2C4992,310,5088,278,5184,261.3C5280,245,5376,245,5472,236.8C5568,229,5664,212,5760,171.5C5856,131,5952,65,6048,57.2C6144,49,6240,98,6336,163.3C6432,229,6528,310,6624,302.2C6720,294,6816,196,6864,147L6912,98L6912,490L6864,490C6816,490,6720,490,6624,490C6528,490,6432,490,6336,490C6240,490,6144,490,6048,490C5952,490,5856,490,5760,490C5664,490,5568,490,5472,490C5376,490,5280,490,5184,490C5088,490,4992,490,4896,490C4800,490,4704,490,4608,490C4512,490,4416,490,4320,490C4224,490,4128,490,4032,490C3936,490,3840,490,3744,490C3648,490,3552,490,3456,490C3360,490,3264,490,3168,490C3072,490,2976,490,2880,490C2784,490,2688,490,2592,490C2496,490,2400,490,2304,490C2208,490,2112,490,2016,490C1920,490,1824,490,1728,490C1632,490,1536,490,1440,490C1344,490,1248,490,1152,490C1056,490,960,490,864,490C768,490,672,490,576,490C480,490,384,490,288,490C192,490,96,490,48,490L0,490Z"/></svg>