<?xml version="1.0" standalone="no"?>
<svg xmlns:xlink="http://www.w3.org/1999/xlink" id="wave" style="transform:rotate(0deg); transition: 0.3s" viewBox="0 0 1440 490" version="1.1" xmlns="http://www.w3.org/2000/svg"><defs><linearGradient id="sw-gradient-0" x1="0" x2="0" y1="1" y2="0"><stop stop-color="rgba(253.15, 253.15, 253.15, 1)" offset="0%"/><stop stop-color="rgba(255, 255, 255, 1)" offset="100%"/></linearGradient></defs><path style="transform:translate(0, 0px); opacity:1" fill="url(#sw-gradient-0)" d="M0,392L48,343C96,294,192,196,288,155.2C384,114,480,131,576,187.8C672,245,768,343,864,334.8C960,327,1056,212,1152,155.2C1248,98,1344,98,1440,81.7C1536,65,1632,33,1728,24.5C1824,16,1920,33,2016,40.8C2112,49,2208,49,2304,81.7C2400,114,2496,180,2592,187.8C2688,196,2784,147,2880,171.5C2976,196,3072,294,3168,302.2C3264,310,3360,229,3456,196C3552,163,3648,180,3744,228.7C3840,278,3936,359,4032,351.2C4128,343,4224,245,4320,236.8C4416,229,4512,310,4608,359.3C4704,408,4800,425,4896,416.5C4992,408,5088,376,5184,334.8C5280,294,5376,245,5472,220.5C5568,196,5664,196,5760,220.5C5856,245,5952,294,6048,302.2C6144,310,6240,278,6336,261.3C6432,245,6528,245,6624,204.2C6720,163,6816,82,6864,40.8L6912,0L6912,490L6864,490C6816,490,6720,490,6624,490C6528,490,6432,490,6336,490C6240,490,6144,490,6048,490C5952,490,5856,490,5760,490C5664,490,5568,490,5472,490C5376,490,5280,490,5184,490C5088,490,4992,490,4896,490C4800,490,4704,490,4608,490C4512,490,4416,490,4320,490C4224,490,4128,490,4032,490C3936,490,3840,490,3744,490C3648,490,3552,490,3456,490C3360,490,3264,490,3168,490C3072,490,2976,490,2880,490C2784,490,2688,490,2592,490C2496,490,2400,490,2304,490C2208,490,2112,490,2016,490C1920,490,1824,490,1728,490C1632,490,1536,490,1440,490C1344,490,1248,490,1152,490C1056,490,960,490,864,490C768,490,672,490,576,490C480,490,384,490,288,490C192,490,96,490,48,490L0,490Z"/></svg>