<?xml version="1.0" standalone="no"?>
<svg xmlns:xlink="http://www.w3.org/1999/xlink" id="wave" style="transform:rotate(0deg); transition: 0.3s" viewBox="0 0 1440 490" version="1.1" xmlns="http://www.w3.org/2000/svg"><defs><linearGradient id="sw-gradient-0" x1="0" x2="0" y1="1" y2="0"><stop stop-color="rgba(255, 251.118, 249.871, 1)" offset="0%"/><stop stop-color="rgba(255, 255, 255, 1)" offset="100%"/></linearGradient></defs><path style="transform:translate(0, 0px); opacity:1" fill="url(#sw-gradient-0)" d="M0,245L48,277.7C96,310,192,376,288,408.3C384,441,480,441,576,441C672,441,768,441,864,375.7C960,310,1056,180,1152,155.2C1248,131,1344,212,1440,269.5C1536,327,1632,359,1728,310.3C1824,261,1920,131,2016,138.8C2112,147,2208,294,2304,334.8C2400,376,2496,310,2592,269.5C2688,229,2784,212,2880,204.2C2976,196,3072,196,3168,196C3264,196,3360,196,3456,179.7C3552,163,3648,131,3744,138.8C3840,147,3936,196,4032,196C4128,196,4224,147,4320,171.5C4416,196,4512,294,4608,318.5C4704,343,4800,294,4896,269.5C4992,245,5088,245,5184,269.5C5280,294,5376,343,5472,310.3C5568,278,5664,163,5760,155.2C5856,147,5952,245,6048,236.8C6144,229,6240,114,6336,114.3C6432,114,6528,229,6624,245C6720,261,6816,180,6864,138.8L6912,98L6912,490L6864,490C6816,490,6720,490,6624,490C6528,490,6432,490,6336,490C6240,490,6144,490,6048,490C5952,490,5856,490,5760,490C5664,490,5568,490,5472,490C5376,490,5280,490,5184,490C5088,490,4992,490,4896,490C4800,490,4704,490,4608,490C4512,490,4416,490,4320,490C4224,490,4128,490,4032,490C3936,490,3840,490,3744,490C3648,490,3552,490,3456,490C3360,490,3264,490,3168,490C3072,490,2976,490,2880,490C2784,490,2688,490,2592,490C2496,490,2400,490,2304,490C2208,490,2112,490,2016,490C1920,490,1824,490,1728,490C1632,490,1536,490,1440,490C1344,490,1248,490,1152,490C1056,490,960,490,864,490C768,490,672,490,576,490C480,490,384,490,288,490C192,490,96,490,48,490L0,490Z"/></svg>