<?xml version="1.0" standalone="no"?>
<svg xmlns:xlink="http://www.w3.org/1999/xlink" id="wave" style="transform:rotate(0deg); transition: 0.3s" viewBox="0 0 1440 100" version="1.1" xmlns="http://www.w3.org/2000/svg"><defs><linearGradient id="sw-gradient-0" x1="0" x2="0" y1="1" y2="0"><stop stop-color="rgba(250.873, 250.873, 250.873, 1)" offset="0%"/><stop stop-color="rgba(255, 255, 255, 1)" offset="100%"/></linearGradient></defs><path style="transform:translate(0, 0px); opacity:1" fill="url(#sw-gradient-0)" d="M0,40L10,35C20,30,40,20,60,13.3C80,7,100,3,120,15C140,27,160,53,180,53.3C200,53,220,27,240,16.7C260,7,280,13,300,21.7C320,30,340,40,360,36.7C380,33,400,17,420,23.3C440,30,460,60,480,63.3C500,67,520,43,540,41.7C560,40,580,60,600,65C620,70,640,60,660,60C680,60,700,70,720,76.7C740,83,760,87,780,85C800,83,820,77,840,75C860,73,880,77,900,68.3C920,60,940,40,960,38.3C980,37,1000,53,1020,63.3C1040,73,1060,77,1080,78.3C1100,80,1120,80,1140,80C1160,80,1180,80,1200,66.7C1220,53,1240,27,1260,23.3C1280,20,1300,40,1320,53.3C1340,67,1360,73,1380,78.3C1400,83,1420,87,1430,88.3L1440,90L1440,100L1430,100C1420,100,1400,100,1380,100C1360,100,1340,100,1320,100C1300,100,1280,100,1260,100C1240,100,1220,100,1200,100C1180,100,1160,100,1140,100C1120,100,1100,100,1080,100C1060,100,1040,100,1020,100C1000,100,980,100,960,100C940,100,920,100,900,100C880,100,860,100,840,100C820,100,800,100,780,100C760,100,740,100,720,100C700,100,680,100,660,100C640,100,620,100,600,100C580,100,560,100,540,100C520,100,500,100,480,100C460,100,440,100,420,100C400,100,380,100,360,100C340,100,320,100,300,100C280,100,260,100,240,100C220,100,200,100,180,100C160,100,140,100,120,100C100,100,80,100,60,100C40,100,20,100,10,100L0,100Z"/></svg>